<svg xmlns="http://www.w3.org/2000/svg" xmlns:xlink="http://www.w3.org/1999/xlink" width="500" zoomAndPan="magnify" viewBox="0 0 375 225" height="300" preserveAspectRatio="xMidYMid meet" version="1.0"><defs><g/><clipPath id="6a0b41533c"><path d="M 288 51 L 362 51 L 362 126 L 288 126 Z M 288 51 " clip-rule="nonzero"/></clipPath><clipPath id="f2fb10d4b0"><path d="M 306.734375 37.007812 L 372.648438 67.800781 L 339.3125 139.148438 L 273.402344 108.355469 Z M 306.734375 37.007812 " clip-rule="nonzero"/></clipPath><clipPath id="2ea16971bf"><path d="M 306.734375 37.007812 L 372.648438 67.800781 L 339.3125 139.148438 L 273.402344 108.355469 Z M 306.734375 37.007812 " clip-rule="nonzero"/></clipPath><clipPath id="43c73ffd20"><path d="M 316 67 L 343 67 L 343 98 L 316 98 Z M 316 67 " clip-rule="nonzero"/></clipPath><clipPath id="701508f808"><path d="M 306.734375 37.007812 L 372.648438 67.800781 L 339.3125 139.148438 L 273.402344 108.355469 Z M 306.734375 37.007812 " clip-rule="nonzero"/></clipPath><clipPath id="34367a2321"><path d="M 306.734375 37.007812 L 372.648438 67.800781 L 339.3125 139.148438 L 273.402344 108.355469 Z M 306.734375 37.007812 " clip-rule="nonzero"/></clipPath><clipPath id="8d03623775"><path d="M 352 45 L 361 45 L 361 52 L 352 52 Z M 352 45 " clip-rule="nonzero"/></clipPath><clipPath id="5711566bd2"><path d="M 368.457031 64.175781 L 333.128906 42.882812 L 340.871094 30.035156 L 376.199219 51.328125 Z M 368.457031 64.175781 " clip-rule="nonzero"/></clipPath><clipPath id="fbfb8b85a0"><path d="M 368.457031 64.175781 L 303.578125 25.074219 L 311.320312 12.226562 L 376.199219 51.328125 Z M 368.457031 64.175781 " clip-rule="nonzero"/></clipPath><clipPath id="d5ffa15a15"><path d="M 363 58 L 370 58 L 370 61 L 363 61 Z M 363 58 " clip-rule="nonzero"/></clipPath><clipPath id="df5bde0af9"><path d="M 368.457031 64.175781 L 333.128906 42.882812 L 340.871094 30.035156 L 376.199219 51.328125 Z M 368.457031 64.175781 " clip-rule="nonzero"/></clipPath><clipPath id="bf95712574"><path d="M 368.457031 64.175781 L 303.578125 25.074219 L 311.320312 12.226562 L 376.199219 51.328125 Z M 368.457031 64.175781 " clip-rule="nonzero"/></clipPath><clipPath id="ac32ce9a00"><path d="M 340 31 L 344 31 L 344 42 L 340 42 Z M 340 31 " clip-rule="nonzero"/></clipPath><clipPath id="1dd045a1cb"><path d="M 368.457031 64.175781 L 333.128906 42.882812 L 340.871094 30.035156 L 376.199219 51.328125 Z M 368.457031 64.175781 " clip-rule="nonzero"/></clipPath><clipPath id="a2b36a43cc"><path d="M 368.457031 64.175781 L 303.578125 25.074219 L 311.320312 12.226562 L 376.199219 51.328125 Z M 368.457031 64.175781 " clip-rule="nonzero"/></clipPath></defs><g clip-path="url(#6a0b41533c)"><g clip-path="url(#f2fb10d4b0)"><g clip-path="url(#2ea16971bf)"><path fill="#f11926" d="M 361.707031 81.996094 C 361.753906 75.398438 359.226562 68.964844 354.546875 64.273438 C 345.320312 55.035156 331.636719 49.304688 318.546875 51.789062 C 305.753906 54.210938 294.003906 64.285156 290.03125 76.753906 C 287.976562 83.179688 288.375 90.136719 291.804688 96.023438 C 293.722656 99.324219 296.539062 102.164062 299.597656 104.441406 C 301.03125 105.515625 302.558594 106.535156 304.179688 107.308594 C 305.941406 108.148438 307.835938 108.710938 309.6875 109.324219 C 311.160156 109.808594 312.800781 110.253906 314.109375 111.117188 C 314.160156 111.160156 314.222656 111.171875 314.277344 111.195312 C 312.203125 115.089844 311.570312 119.566406 309.652344 123.53125 C 309.183594 124.496094 310.203125 125.550781 311.191406 125.214844 C 314.089844 124.199219 316.402344 121.941406 318.488281 119.765625 C 319.636719 118.578125 320.730469 117.328125 321.84375 116.105469 C 322.367188 115.535156 322.894531 114.949219 323.441406 114.394531 C 323.695312 114.140625 323.984375 113.886719 324.246094 113.617188 C 326.320312 114.046875 328.621094 114.019531 330.707031 113.878906 C 331.917969 113.796875 333.058594 113.636719 334.152344 113.371094 C 337.449219 113.148438 340.722656 112.460938 343.75 111.285156 C 349.089844 109.222656 353.53125 105.457031 356.503906 100.582031 C 359.847656 95.164062 361.671875 88.363281 361.707031 81.996094 Z M 346.367188 107.75 C 341.152344 110.917969 335.023438 111.980469 328.992188 111.921875 C 328.164062 111.910156 327.332031 111.910156 326.5 111.914062 C 325.96875 111.851562 325.425781 111.78125 324.894531 111.71875 C 324.675781 111.210938 324.121094 110.902344 323.46875 111.070312 C 322.195312 111.390625 321.007812 113.136719 320.144531 114.074219 C 319.105469 115.214844 318.070312 116.371094 317.015625 117.503906 C 315.785156 118.828125 314.449219 120.269531 312.949219 121.414062 C 313.847656 118.109375 314.304688 114.699219 315.441406 111.46875 C 315.78125 111.425781 316.109375 111.273438 316.390625 110.964844 C 316.902344 110.375 316.9375 109.171875 316.210938 108.695312 C 313.351562 106.820312 309.898438 106.222656 306.769531 104.960938 C 303.550781 103.679688 300.6875 101.492188 298.238281 99.0625 C 293.679688 94.546875 291.292969 88.46875 292.101562 82.054688 C 292.847656 76.171875 295.835938 70.796875 299.695312 66.382812 C 303.726562 61.78125 308.835938 58.074219 314.640625 56.042969 C 326.277344 51.980469 338.980469 55.5625 348.480469 62.980469 C 350.980469 64.925781 353.398438 67.089844 355.191406 69.722656 C 356.859375 72.179688 357.988281 74.992188 358.515625 77.898438 C 359.605469 83.960938 358.542969 90.222656 356.246094 95.871094 C 354.207031 100.8125 350.945312 104.960938 346.367188 107.75 Z M 346.367188 107.75 " fill-opacity="1" fill-rule="nonzero"/></g></g></g><g clip-path="url(#43c73ffd20)"><g clip-path="url(#701508f808)"><g clip-path="url(#34367a2321)"><path fill="#f11926" d="M 342.300781 73.773438 C 341.726562 72.167969 340.3125 71.238281 338.78125 71.03125 C 337.058594 70.464844 334.867188 71.082031 333.378906 71.875 C 331.933594 72.640625 330.660156 73.773438 329.640625 75.042969 C 329.023438 75.820312 328.488281 76.636719 327.96875 77.460938 C 327.894531 77.257812 327.753906 77.089844 327.578125 76.957031 C 327.429688 75.378906 326.949219 73.832031 326.289062 72.339844 C 325.386719 70.308594 323.859375 67.480469 321.414062 67.082031 C 318.582031 66.605469 316.867188 70.054688 316.53125 72.335938 C 315.964844 76.203125 317.21875 79.90625 317.875 83.667969 C 318.210938 85.636719 318.265625 87.660156 318.59375 89.640625 C 318.703125 90.320312 318.84375 91.214844 319.132812 92.011719 C 319.167969 92.265625 319.183594 92.523438 319.21875 92.777344 C 319.289062 93.386719 319.367188 94.203125 319.59375 94.917969 C 319.640625 95.429688 319.6875 95.945312 319.8125 96.441406 C 319.9375 96.976562 320.734375 97.195312 321.144531 96.863281 C 321.171875 96.839844 321.199219 96.820312 321.226562 96.796875 C 322.453125 96.421875 323.714844 95.792969 324.863281 95.007812 C 330.035156 92.175781 335.179688 88.90625 338.925781 84.339844 C 340.308594 82.648438 342.199219 79.585938 342.472656 76.855469 C 342.648438 75.785156 342.640625 74.714844 342.300781 73.773438 Z M 342.300781 73.773438 " fill-opacity="1" fill-rule="nonzero"/></g></g></g><g fill="#f11926" fill-opacity="1"><g transform="translate(69.781305, 63.841039)"><g><path d="M 3.421875 -47 L 20.21875 -47 C 24.738281 -47 28.421875 -45.789062 31.265625 -43.375 C 34.117188 -40.96875 35.546875 -37.523438 35.546875 -33.046875 C 35.546875 -29.585938 34.679688 -26.6875 32.953125 -24.34375 C 31.222656 -22.007812 28.878906 -20.367188 25.921875 -19.421875 L 42.09375 0 L 28.484375 0 L 14.125 -18.578125 L 14.125 0 L 3.421875 0 Z M 14.125 -26.15625 L 15.375 -26.15625 C 16.363281 -26.15625 17.195312 -26.171875 17.875 -26.203125 C 18.5625 -26.242188 19.34375 -26.378906 20.21875 -26.609375 C 21.09375 -26.835938 21.796875 -27.160156 22.328125 -27.578125 C 22.859375 -27.992188 23.3125 -28.597656 23.6875 -29.390625 C 24.070312 -30.191406 24.265625 -31.160156 24.265625 -32.296875 C 24.265625 -33.441406 24.070312 -34.410156 23.6875 -35.203125 C 23.3125 -36.003906 22.859375 -36.613281 22.328125 -37.03125 C 21.796875 -37.445312 21.09375 -37.769531 20.21875 -38 C 19.34375 -38.226562 18.5625 -38.359375 17.875 -38.390625 C 17.195312 -38.429688 16.363281 -38.453125 15.375 -38.453125 L 14.125 -38.453125 Z M 14.125 -26.15625 "/></g></g></g><g fill="#f11926" fill-opacity="1"><g transform="translate(107.722905, 63.841039)"><g><path d="M 32.984375 -13.21875 L 11.796875 -13.21875 C 11.796875 -11.164062 12.457031 -9.644531 13.78125 -8.65625 C 15.113281 -7.664062 16.554688 -7.171875 18.109375 -7.171875 C 19.742188 -7.171875 21.035156 -7.390625 21.984375 -7.828125 C 22.941406 -8.265625 24.023438 -9.128906 25.234375 -10.421875 L 32.53125 -6.78125 C 29.488281 -1.6875 24.4375 0.859375 17.375 0.859375 C 12.96875 0.859375 9.1875 -0.648438 6.03125 -3.671875 C 2.882812 -6.691406 1.3125 -10.328125 1.3125 -14.578125 C 1.3125 -18.835938 2.882812 -22.484375 6.03125 -25.515625 C 9.1875 -28.554688 12.96875 -30.078125 17.375 -30.078125 C 22.007812 -30.078125 25.78125 -28.738281 28.6875 -26.0625 C 31.59375 -23.382812 33.046875 -19.554688 33.046875 -14.578125 C 33.046875 -13.898438 33.023438 -13.445312 32.984375 -13.21875 Z M 12.078125 -18.796875 L 23.1875 -18.796875 C 22.957031 -20.316406 22.359375 -21.484375 21.390625 -22.296875 C 20.421875 -23.117188 19.175781 -23.53125 17.65625 -23.53125 C 15.988281 -23.53125 14.660156 -23.09375 13.671875 -22.21875 C 12.679688 -21.34375 12.148438 -20.203125 12.078125 -18.796875 Z M 12.078125 -18.796875 "/></g></g></g><g fill="#f11926" fill-opacity="1"><g transform="translate(139.226845, 63.841039)"><g><path d="M 16.125 -30.078125 C 17.789062 -30.078125 19.441406 -29.882812 21.078125 -29.5 C 22.710938 -29.125 23.925781 -28.75 24.71875 -28.375 L 25.921875 -27.796875 L 22.609375 -21.1875 C 20.335938 -22.40625 18.175781 -23.015625 16.125 -23.015625 C 14.976562 -23.015625 14.164062 -22.890625 13.6875 -22.640625 C 13.21875 -22.398438 12.984375 -21.9375 12.984375 -21.25 C 12.984375 -21.09375 13.003906 -20.9375 13.046875 -20.78125 C 13.085938 -20.632812 13.160156 -20.492188 13.265625 -20.359375 C 13.378906 -20.234375 13.484375 -20.117188 13.578125 -20.015625 C 13.679688 -19.921875 13.84375 -19.816406 14.0625 -19.703125 C 14.289062 -19.597656 14.472656 -19.515625 14.609375 -19.453125 C 14.742188 -19.398438 14.960938 -19.316406 15.265625 -19.203125 C 15.566406 -19.085938 15.789062 -19 15.9375 -18.9375 C 16.09375 -18.882812 16.351562 -18.800781 16.71875 -18.6875 C 17.082031 -18.570312 17.359375 -18.492188 17.546875 -18.453125 C 18.722656 -18.109375 19.75 -17.726562 20.625 -17.3125 C 21.5 -16.894531 22.421875 -16.328125 23.390625 -15.609375 C 24.359375 -14.890625 25.109375 -13.976562 25.640625 -12.875 C 26.171875 -11.769531 26.4375 -10.515625 26.4375 -9.109375 C 26.4375 -2.460938 21.820312 0.859375 12.59375 0.859375 C 10.5 0.859375 8.507812 0.535156 6.625 -0.109375 C 4.75 -0.753906 3.394531 -1.398438 2.5625 -2.046875 L 1.3125 -3.078125 L 5.40625 -9.96875 C 5.71875 -9.707031 6.117188 -9.394531 6.609375 -9.03125 C 7.097656 -8.664062 7.988281 -8.171875 9.28125 -7.546875 C 10.570312 -6.921875 11.691406 -6.609375 12.640625 -6.609375 C 14.734375 -6.609375 15.78125 -7.3125 15.78125 -8.71875 C 15.78125 -9.363281 15.515625 -9.863281 14.984375 -10.21875 C 14.453125 -10.582031 13.550781 -10.992188 12.28125 -11.453125 C 11.007812 -11.910156 10.007812 -12.328125 9.28125 -12.703125 C 7.457031 -13.648438 6.015625 -14.722656 4.953125 -15.921875 C 3.890625 -17.117188 3.359375 -18.703125 3.359375 -20.671875 C 3.359375 -23.640625 4.503906 -25.945312 6.796875 -27.59375 C 9.097656 -29.25 12.207031 -30.078125 16.125 -30.078125 Z M 16.125 -30.078125 "/></g></g></g><g fill="#f11926" fill-opacity="1"><g transform="translate(164.407072, 63.841039)"><g><path d="M 2.109375 7.171875 L 10.375 3.140625 C 11.882812 5.640625 14.519531 6.890625 18.28125 6.890625 C 20.03125 6.890625 21.65625 6.328125 23.15625 5.203125 C 24.65625 4.085938 25.40625 2.375 25.40625 0.0625 L 25.40625 -2.109375 C 23.625 -0.128906 20.4375 0.859375 15.84375 0.859375 C 11.625 0.859375 8.144531 -0.628906 5.40625 -3.609375 C 2.675781 -6.597656 1.3125 -10.253906 1.3125 -14.578125 C 1.3125 -18.910156 2.675781 -22.578125 5.40625 -25.578125 C 8.144531 -28.578125 11.625 -30.078125 15.84375 -30.078125 C 19.601562 -30.078125 22.734375 -28.921875 25.234375 -26.609375 L 25.40625 -26.609375 L 25.40625 -29.21875 L 35.484375 -29.21875 L 35.484375 0.796875 C 35.484375 5.546875 33.90625 9.210938 30.75 11.796875 C 27.601562 14.378906 23.445312 15.671875 18.28125 15.671875 C 9.925781 15.671875 4.535156 12.835938 2.109375 7.171875 Z M 13.984375 -19.546875 C 12.671875 -18.253906 12.015625 -16.597656 12.015625 -14.578125 C 12.015625 -12.566406 12.640625 -10.925781 13.890625 -9.65625 C 15.148438 -8.382812 16.804688 -7.75 18.859375 -7.75 C 20.828125 -7.75 22.445312 -8.394531 23.71875 -9.6875 C 25 -10.976562 25.640625 -12.609375 25.640625 -14.578125 C 25.640625 -16.597656 24.984375 -18.253906 23.671875 -19.546875 C 22.359375 -20.835938 20.753906 -21.484375 18.859375 -21.484375 C 16.921875 -21.484375 15.296875 -20.835938 13.984375 -19.546875 Z M 13.984375 -19.546875 "/></g></g></g><g fill="#f11926" fill-opacity="1"><g transform="translate(200.468643, 63.841039)"><g><path d="M 5.40625 -3.609375 C 2.675781 -6.597656 1.3125 -10.253906 1.3125 -14.578125 C 1.3125 -18.910156 2.675781 -22.578125 5.40625 -25.578125 C 8.144531 -28.578125 11.625 -30.078125 15.84375 -30.078125 C 19.707031 -30.078125 22.894531 -28.863281 25.40625 -26.4375 L 25.40625 -29.21875 L 35.484375 -29.21875 L 35.484375 0 L 25.515625 0 L 25.515625 -3.296875 L 25.40625 -3.296875 C 22.894531 -0.523438 19.707031 0.859375 15.84375 0.859375 C 11.625 0.859375 8.144531 -0.628906 5.40625 -3.609375 Z M 13.984375 -19.546875 C 12.671875 -18.253906 12.015625 -16.597656 12.015625 -14.578125 C 12.015625 -12.566406 12.640625 -10.925781 13.890625 -9.65625 C 15.148438 -8.382812 16.804688 -7.75 18.859375 -7.75 C 20.828125 -7.75 22.445312 -8.394531 23.71875 -9.6875 C 25 -10.976562 25.640625 -12.609375 25.640625 -14.578125 C 25.640625 -16.597656 24.984375 -18.253906 23.671875 -19.546875 C 22.359375 -20.835938 20.753906 -21.484375 18.859375 -21.484375 C 16.921875 -21.484375 15.296875 -20.835938 13.984375 -19.546875 Z M 13.984375 -19.546875 "/></g></g></g><g fill="#f11926" fill-opacity="1"><g transform="translate(236.530214, 63.841039)"><g><path d="M 5.125 -29.21875 L 5.125 -40.109375 L 15.203125 -40.109375 L 15.203125 -29.21875 L 21.359375 -29.21875 L 21.359375 -21.53125 L 15.203125 -21.53125 L 15.203125 -12.25 C 15.203125 -9.550781 15.960938 -8.203125 17.484375 -8.203125 C 17.867188 -8.203125 18.269531 -8.273438 18.6875 -8.421875 C 19.101562 -8.578125 19.425781 -8.734375 19.65625 -8.890625 L 20 -9.109375 L 22.5 -0.96875 C 20.332031 0.25 17.863281 0.859375 15.09375 0.859375 C 13.195312 0.859375 11.5625 0.523438 10.1875 -0.140625 C 8.820312 -0.804688 7.785156 -1.695312 7.078125 -2.8125 C 6.378906 -3.9375 5.878906 -5.113281 5.578125 -6.34375 C 5.273438 -7.582031 5.125 -8.90625 5.125 -10.3125 L 5.125 -21.53125 L 0.90625 -21.53125 L 0.90625 -29.21875 Z M 5.125 -29.21875 "/></g></g></g><g fill="#f11926" fill-opacity="1"><g transform="translate(256.1843, 63.841039)"><g><path d="M 32.984375 -13.21875 L 11.796875 -13.21875 C 11.796875 -11.164062 12.457031 -9.644531 13.78125 -8.65625 C 15.113281 -7.664062 16.554688 -7.171875 18.109375 -7.171875 C 19.742188 -7.171875 21.035156 -7.390625 21.984375 -7.828125 C 22.941406 -8.265625 24.023438 -9.128906 25.234375 -10.421875 L 32.53125 -6.78125 C 29.488281 -1.6875 24.4375 0.859375 17.375 0.859375 C 12.96875 0.859375 9.1875 -0.648438 6.03125 -3.671875 C 2.882812 -6.691406 1.3125 -10.328125 1.3125 -14.578125 C 1.3125 -18.835938 2.882812 -22.484375 6.03125 -25.515625 C 9.1875 -28.554688 12.96875 -30.078125 17.375 -30.078125 C 22.007812 -30.078125 25.78125 -28.738281 28.6875 -26.0625 C 31.59375 -23.382812 33.046875 -19.554688 33.046875 -14.578125 C 33.046875 -13.898438 33.023438 -13.445312 32.984375 -13.21875 Z M 12.078125 -18.796875 L 23.1875 -18.796875 C 22.957031 -20.316406 22.359375 -21.484375 21.390625 -22.296875 C 20.421875 -23.117188 19.175781 -23.53125 17.65625 -23.53125 C 15.988281 -23.53125 14.660156 -23.09375 13.671875 -22.21875 C 12.679688 -21.34375 12.148438 -20.203125 12.078125 -18.796875 Z M 12.078125 -18.796875 "/></g></g></g><g fill="#f11926" fill-opacity="1"><g transform="translate(133.132426, 117.317284)"><g><path d="M 16.125 -30.078125 C 17.789062 -30.078125 19.441406 -29.882812 21.078125 -29.5 C 22.710938 -29.125 23.925781 -28.75 24.71875 -28.375 L 25.921875 -27.796875 L 22.609375 -21.1875 C 20.335938 -22.40625 18.175781 -23.015625 16.125 -23.015625 C 14.976562 -23.015625 14.164062 -22.890625 13.6875 -22.640625 C 13.21875 -22.398438 12.984375 -21.9375 12.984375 -21.25 C 12.984375 -21.09375 13.003906 -20.9375 13.046875 -20.78125 C 13.085938 -20.632812 13.160156 -20.492188 13.265625 -20.359375 C 13.378906 -20.234375 13.484375 -20.117188 13.578125 -20.015625 C 13.679688 -19.921875 13.84375 -19.816406 14.0625 -19.703125 C 14.289062 -19.597656 14.472656 -19.515625 14.609375 -19.453125 C 14.742188 -19.398438 14.960938 -19.316406 15.265625 -19.203125 C 15.566406 -19.085938 15.789062 -19 15.9375 -18.9375 C 16.09375 -18.882812 16.351562 -18.800781 16.71875 -18.6875 C 17.082031 -18.570312 17.359375 -18.492188 17.546875 -18.453125 C 18.722656 -18.109375 19.75 -17.726562 20.625 -17.3125 C 21.5 -16.894531 22.421875 -16.328125 23.390625 -15.609375 C 24.359375 -14.890625 25.109375 -13.976562 25.640625 -12.875 C 26.171875 -11.769531 26.4375 -10.515625 26.4375 -9.109375 C 26.4375 -2.460938 21.820312 0.859375 12.59375 0.859375 C 10.5 0.859375 8.507812 0.535156 6.625 -0.109375 C 4.75 -0.753906 3.394531 -1.398438 2.5625 -2.046875 L 1.3125 -3.078125 L 5.40625 -9.96875 C 5.71875 -9.707031 6.117188 -9.394531 6.609375 -9.03125 C 7.097656 -8.664062 7.988281 -8.171875 9.28125 -7.546875 C 10.570312 -6.921875 11.691406 -6.609375 12.640625 -6.609375 C 14.734375 -6.609375 15.78125 -7.3125 15.78125 -8.71875 C 15.78125 -9.363281 15.515625 -9.863281 14.984375 -10.21875 C 14.453125 -10.582031 13.550781 -10.992188 12.28125 -11.453125 C 11.007812 -11.910156 10.007812 -12.328125 9.28125 -12.703125 C 7.457031 -13.648438 6.015625 -14.722656 4.953125 -15.921875 C 3.890625 -17.117188 3.359375 -18.703125 3.359375 -20.671875 C 3.359375 -23.640625 4.503906 -25.945312 6.796875 -27.59375 C 9.097656 -29.25 12.207031 -30.078125 16.125 -30.078125 Z M 16.125 -30.078125 "/></g></g></g><g fill="#f11926" fill-opacity="1"><g transform="translate(158.31265, 117.317284)"><g><path d="M 32.984375 -13.21875 L 11.796875 -13.21875 C 11.796875 -11.164062 12.457031 -9.644531 13.78125 -8.65625 C 15.113281 -7.664062 16.554688 -7.171875 18.109375 -7.171875 C 19.742188 -7.171875 21.035156 -7.390625 21.984375 -7.828125 C 22.941406 -8.265625 24.023438 -9.128906 25.234375 -10.421875 L 32.53125 -6.78125 C 29.488281 -1.6875 24.4375 0.859375 17.375 0.859375 C 12.96875 0.859375 9.1875 -0.648438 6.03125 -3.671875 C 2.882812 -6.691406 1.3125 -10.328125 1.3125 -14.578125 C 1.3125 -18.835938 2.882812 -22.484375 6.03125 -25.515625 C 9.1875 -28.554688 12.96875 -30.078125 17.375 -30.078125 C 22.007812 -30.078125 25.78125 -28.738281 28.6875 -26.0625 C 31.59375 -23.382812 33.046875 -19.554688 33.046875 -14.578125 C 33.046875 -13.898438 33.023438 -13.445312 32.984375 -13.21875 Z M 12.078125 -18.796875 L 23.1875 -18.796875 C 22.957031 -20.316406 22.359375 -21.484375 21.390625 -22.296875 C 20.421875 -23.117188 19.175781 -23.53125 17.65625 -23.53125 C 15.988281 -23.53125 14.660156 -23.09375 13.671875 -22.21875 C 12.679688 -21.34375 12.148438 -20.203125 12.078125 -18.796875 Z M 12.078125 -18.796875 "/></g></g></g><g fill="#f11926" fill-opacity="1"><g transform="translate(189.816587, 117.317284)"><g><path d="M 12.9375 -29.21875 L 12.9375 -15.328125 C 12.9375 -12.441406 13.367188 -10.390625 14.234375 -9.171875 C 15.109375 -7.953125 16.585938 -7.34375 18.671875 -7.34375 C 20.765625 -7.34375 22.25 -7.953125 23.125 -9.171875 C 24 -10.390625 24.4375 -12.441406 24.4375 -15.328125 L 24.4375 -29.21875 L 34.515625 -29.21875 L 34.515625 -12.875 C 34.515625 -8.007812 33.253906 -4.503906 30.734375 -2.359375 C 28.210938 -0.210938 24.195312 0.859375 18.6875 0.859375 C 13.175781 0.859375 9.15625 -0.210938 6.625 -2.359375 C 4.101562 -4.503906 2.84375 -8.007812 2.84375 -12.875 L 2.84375 -29.21875 Z M 12.9375 -29.21875 "/></g></g></g><g fill="#f11926" fill-opacity="1"><g transform="translate(23.035166, 170.79353)"><g><path d="M 28.421875 -9.6875 C 30.054688 -9.6875 31.640625 -9.929688 33.171875 -10.421875 C 34.710938 -10.921875 35.847656 -11.394531 36.578125 -11.84375 L 37.65625 -12.59375 L 42.21875 -3.46875 C 42.0625 -3.351562 41.847656 -3.203125 41.578125 -3.015625 C 41.316406 -2.828125 40.703125 -2.476562 39.734375 -1.96875 C 38.765625 -1.457031 37.726562 -1.007812 36.625 -0.625 C 35.53125 -0.25 34.085938 0.0859375 32.296875 0.390625 C 30.515625 0.703125 28.675781 0.859375 26.78125 0.859375 C 22.40625 0.859375 18.257812 -0.210938 14.34375 -2.359375 C 10.4375 -4.503906 7.285156 -7.457031 4.890625 -11.21875 C 2.503906 -14.976562 1.3125 -19.046875 1.3125 -23.421875 C 1.3125 -26.722656 2.015625 -29.890625 3.421875 -32.921875 C 4.828125 -35.960938 6.695312 -38.566406 9.03125 -40.734375 C 11.363281 -42.898438 14.085938 -44.628906 17.203125 -45.921875 C 20.316406 -47.210938 23.507812 -47.859375 26.78125 -47.859375 C 29.8125 -47.859375 32.609375 -47.492188 35.171875 -46.765625 C 37.742188 -46.046875 39.5625 -45.328125 40.625 -44.609375 L 42.21875 -43.53125 L 37.65625 -34.40625 C 37.382812 -34.632812 36.984375 -34.910156 36.453125 -35.234375 C 35.921875 -35.554688 34.859375 -35.984375 33.265625 -36.515625 C 31.671875 -37.046875 30.054688 -37.3125 28.421875 -37.3125 C 25.835938 -37.3125 23.519531 -36.894531 21.46875 -36.0625 C 19.425781 -35.226562 17.804688 -34.125 16.609375 -32.75 C 15.410156 -31.382812 14.5 -29.914062 13.875 -28.34375 C 13.25 -26.769531 12.9375 -25.164062 12.9375 -23.53125 C 12.9375 -19.957031 14.273438 -16.753906 16.953125 -13.921875 C 19.628906 -11.097656 23.453125 -9.6875 28.421875 -9.6875 Z M 28.421875 -9.6875 "/></g></g></g><g fill="#f11926" fill-opacity="1"><g transform="translate(63.084672, 170.79353)"><g><path d="M 5.40625 -3.609375 C 2.675781 -6.597656 1.3125 -10.253906 1.3125 -14.578125 C 1.3125 -18.910156 2.675781 -22.578125 5.40625 -25.578125 C 8.144531 -28.578125 11.625 -30.078125 15.84375 -30.078125 C 19.707031 -30.078125 22.894531 -28.863281 25.40625 -26.4375 L 25.40625 -29.21875 L 35.484375 -29.21875 L 35.484375 0 L 25.515625 0 L 25.515625 -3.296875 L 25.40625 -3.296875 C 22.894531 -0.523438 19.707031 0.859375 15.84375 0.859375 C 11.625 0.859375 8.144531 -0.628906 5.40625 -3.609375 Z M 13.984375 -19.546875 C 12.671875 -18.253906 12.015625 -16.597656 12.015625 -14.578125 C 12.015625 -12.566406 12.640625 -10.925781 13.890625 -9.65625 C 15.148438 -8.382812 16.804688 -7.75 18.859375 -7.75 C 20.828125 -7.75 22.445312 -8.394531 23.71875 -9.6875 C 25 -10.976562 25.640625 -12.609375 25.640625 -14.578125 C 25.640625 -16.597656 24.984375 -18.253906 23.671875 -19.546875 C 22.359375 -20.835938 20.753906 -21.484375 18.859375 -21.484375 C 16.921875 -21.484375 15.296875 -20.835938 13.984375 -19.546875 Z M 13.984375 -19.546875 "/></g></g></g><g fill="#f11926" fill-opacity="1"><g transform="translate(99.146247, 170.79353)"><g><path d="M 16.125 -30.078125 C 17.789062 -30.078125 19.441406 -29.882812 21.078125 -29.5 C 22.710938 -29.125 23.925781 -28.75 24.71875 -28.375 L 25.921875 -27.796875 L 22.609375 -21.1875 C 20.335938 -22.40625 18.175781 -23.015625 16.125 -23.015625 C 14.976562 -23.015625 14.164062 -22.890625 13.6875 -22.640625 C 13.21875 -22.398438 12.984375 -21.9375 12.984375 -21.25 C 12.984375 -21.09375 13.003906 -20.9375 13.046875 -20.78125 C 13.085938 -20.632812 13.160156 -20.492188 13.265625 -20.359375 C 13.378906 -20.234375 13.484375 -20.117188 13.578125 -20.015625 C 13.679688 -19.921875 13.84375 -19.816406 14.0625 -19.703125 C 14.289062 -19.597656 14.472656 -19.515625 14.609375 -19.453125 C 14.742188 -19.398438 14.960938 -19.316406 15.265625 -19.203125 C 15.566406 -19.085938 15.789062 -19 15.9375 -18.9375 C 16.09375 -18.882812 16.351562 -18.800781 16.71875 -18.6875 C 17.082031 -18.570312 17.359375 -18.492188 17.546875 -18.453125 C 18.722656 -18.109375 19.75 -17.726562 20.625 -17.3125 C 21.5 -16.894531 22.421875 -16.328125 23.390625 -15.609375 C 24.359375 -14.890625 25.109375 -13.976562 25.640625 -12.875 C 26.171875 -11.769531 26.4375 -10.515625 26.4375 -9.109375 C 26.4375 -2.460938 21.820312 0.859375 12.59375 0.859375 C 10.5 0.859375 8.507812 0.535156 6.625 -0.109375 C 4.75 -0.753906 3.394531 -1.398438 2.5625 -2.046875 L 1.3125 -3.078125 L 5.40625 -9.96875 C 5.71875 -9.707031 6.117188 -9.394531 6.609375 -9.03125 C 7.097656 -8.664062 7.988281 -8.171875 9.28125 -7.546875 C 10.570312 -6.921875 11.691406 -6.609375 12.640625 -6.609375 C 14.734375 -6.609375 15.78125 -7.3125 15.78125 -8.71875 C 15.78125 -9.363281 15.515625 -9.863281 14.984375 -10.21875 C 14.453125 -10.582031 13.550781 -10.992188 12.28125 -11.453125 C 11.007812 -11.910156 10.007812 -12.328125 9.28125 -12.703125 C 7.457031 -13.648438 6.015625 -14.722656 4.953125 -15.921875 C 3.890625 -17.117188 3.359375 -18.703125 3.359375 -20.671875 C 3.359375 -23.640625 4.503906 -25.945312 6.796875 -27.59375 C 9.097656 -29.25 12.207031 -30.078125 16.125 -30.078125 Z M 16.125 -30.078125 "/></g></g></g><g fill="#f11926" fill-opacity="1"><g transform="translate(124.326474, 170.79353)"><g><path d="M 5.40625 -3.609375 C 2.675781 -6.597656 1.3125 -10.253906 1.3125 -14.578125 C 1.3125 -18.910156 2.675781 -22.578125 5.40625 -25.578125 C 8.144531 -28.578125 11.625 -30.078125 15.84375 -30.078125 C 19.707031 -30.078125 22.894531 -28.863281 25.40625 -26.4375 L 25.40625 -29.21875 L 35.484375 -29.21875 L 35.484375 0 L 25.515625 0 L 25.515625 -3.296875 L 25.40625 -3.296875 C 22.894531 -0.523438 19.707031 0.859375 15.84375 0.859375 C 11.625 0.859375 8.144531 -0.628906 5.40625 -3.609375 Z M 13.984375 -19.546875 C 12.671875 -18.253906 12.015625 -16.597656 12.015625 -14.578125 C 12.015625 -12.566406 12.640625 -10.925781 13.890625 -9.65625 C 15.148438 -8.382812 16.804688 -7.75 18.859375 -7.75 C 20.828125 -7.75 22.445312 -8.394531 23.71875 -9.6875 C 25 -10.976562 25.640625 -12.609375 25.640625 -14.578125 C 25.640625 -16.597656 24.984375 -18.253906 23.671875 -19.546875 C 22.359375 -20.835938 20.753906 -21.484375 18.859375 -21.484375 C 16.921875 -21.484375 15.296875 -20.835938 13.984375 -19.546875 Z M 13.984375 -19.546875 "/></g></g></g><g fill="#f11926" fill-opacity="1"><g transform="translate(160.388045, 170.79353)"><g><path d="M 3.421875 0 L 3.421875 -29.21875 L 13.5 -29.21875 L 13.5 -26.15625 L 13.609375 -26.15625 C 16.234375 -28.769531 19.023438 -30.078125 21.984375 -30.078125 C 24.117188 -30.078125 26.113281 -29.640625 27.96875 -28.765625 C 29.832031 -27.890625 31.238281 -26.539062 32.1875 -24.71875 C 35.144531 -28.289062 38.375 -30.078125 41.875 -30.078125 C 44.988281 -30.078125 47.664062 -29.203125 49.90625 -27.453125 C 52.144531 -25.710938 53.265625 -22.976562 53.265625 -19.25 L 53.265625 0 L 43.1875 0 L 43.1875 -16.515625 C 43.1875 -18.078125 42.757812 -19.378906 41.90625 -20.421875 C 41.050781 -21.460938 39.769531 -21.984375 38.0625 -21.984375 C 36.570312 -21.984375 35.4375 -21.535156 34.65625 -20.640625 C 33.882812 -19.753906 33.460938 -18.6875 33.390625 -17.4375 L 33.390625 0 L 23.296875 0 L 23.296875 -16.515625 C 23.296875 -18.078125 22.867188 -19.378906 22.015625 -20.421875 C 21.160156 -21.460938 19.878906 -21.984375 18.171875 -21.984375 C 16.617188 -21.984375 15.453125 -21.5 14.671875 -20.53125 C 13.890625 -19.5625 13.5 -18.414062 13.5 -17.09375 L 13.5 0 Z M 3.421875 0 "/></g></g></g><g fill="#f11926" fill-opacity="1"><g transform="translate(213.654687, 170.79353)"><g><path d="M 32.984375 -13.21875 L 11.796875 -13.21875 C 11.796875 -11.164062 12.457031 -9.644531 13.78125 -8.65625 C 15.113281 -7.664062 16.554688 -7.171875 18.109375 -7.171875 C 19.742188 -7.171875 21.035156 -7.390625 21.984375 -7.828125 C 22.941406 -8.265625 24.023438 -9.128906 25.234375 -10.421875 L 32.53125 -6.78125 C 29.488281 -1.6875 24.4375 0.859375 17.375 0.859375 C 12.96875 0.859375 9.1875 -0.648438 6.03125 -3.671875 C 2.882812 -6.691406 1.3125 -10.328125 1.3125 -14.578125 C 1.3125 -18.835938 2.882812 -22.484375 6.03125 -25.515625 C 9.1875 -28.554688 12.96875 -30.078125 17.375 -30.078125 C 22.007812 -30.078125 25.78125 -28.738281 28.6875 -26.0625 C 31.59375 -23.382812 33.046875 -19.554688 33.046875 -14.578125 C 33.046875 -13.898438 33.023438 -13.445312 32.984375 -13.21875 Z M 12.078125 -18.796875 L 23.1875 -18.796875 C 22.957031 -20.316406 22.359375 -21.484375 21.390625 -22.296875 C 20.421875 -23.117188 19.175781 -23.53125 17.65625 -23.53125 C 15.988281 -23.53125 14.660156 -23.09375 13.671875 -22.21875 C 12.679688 -21.34375 12.148438 -20.203125 12.078125 -18.796875 Z M 12.078125 -18.796875 "/></g></g></g><g fill="#f11926" fill-opacity="1"><g transform="translate(245.158624, 170.79353)"><g><path d="M 3.421875 0 L 3.421875 -29.21875 L 13.5 -29.21875 L 13.5 -26.15625 L 13.609375 -26.15625 C 16.234375 -28.769531 19.023438 -30.078125 21.984375 -30.078125 C 23.429688 -30.078125 24.863281 -29.882812 26.28125 -29.5 C 27.707031 -29.125 29.078125 -28.535156 30.390625 -27.734375 C 31.703125 -26.941406 32.765625 -25.8125 33.578125 -24.34375 C 34.398438 -22.882812 34.8125 -21.1875 34.8125 -19.25 L 34.8125 0 L 24.71875 0 L 24.71875 -16.515625 C 24.71875 -18.035156 24.234375 -19.363281 23.265625 -20.5 C 22.296875 -21.644531 21.035156 -22.21875 19.484375 -22.21875 C 17.960938 -22.21875 16.582031 -21.628906 15.34375 -20.453125 C 14.113281 -19.273438 13.5 -17.960938 13.5 -16.515625 L 13.5 0 Z M 3.421875 0 "/></g></g></g><g fill="#f11926" fill-opacity="1"><g transform="translate(279.96686, 170.79353)"><g><path d="M 5.125 -29.21875 L 5.125 -40.109375 L 15.203125 -40.109375 L 15.203125 -29.21875 L 21.359375 -29.21875 L 21.359375 -21.53125 L 15.203125 -21.53125 L 15.203125 -12.25 C 15.203125 -9.550781 15.960938 -8.203125 17.484375 -8.203125 C 17.867188 -8.203125 18.269531 -8.273438 18.6875 -8.421875 C 19.101562 -8.578125 19.425781 -8.734375 19.65625 -8.890625 L 20 -9.109375 L 22.5 -0.96875 C 20.332031 0.25 17.863281 0.859375 15.09375 0.859375 C 13.195312 0.859375 11.5625 0.523438 10.1875 -0.140625 C 8.820312 -0.804688 7.785156 -1.695312 7.078125 -2.8125 C 6.378906 -3.9375 5.878906 -5.113281 5.578125 -6.34375 C 5.273438 -7.582031 5.125 -8.90625 5.125 -10.3125 L 5.125 -21.53125 L 0.90625 -21.53125 L 0.90625 -29.21875 Z M 5.125 -29.21875 "/></g></g></g><g fill="#f11926" fill-opacity="1"><g transform="translate(299.620947, 170.79353)"><g><path d="M 6.171875 -3.46875 C 2.929688 -6.363281 1.3125 -10.066406 1.3125 -14.578125 C 1.3125 -19.097656 3 -22.8125 6.375 -25.71875 C 9.757812 -28.625 13.9375 -30.078125 18.90625 -30.078125 C 23.8125 -30.078125 27.941406 -28.613281 31.296875 -25.6875 C 34.660156 -22.769531 36.34375 -19.066406 36.34375 -14.578125 C 36.34375 -10.097656 34.695312 -6.40625 31.40625 -3.5 C 28.125 -0.59375 23.957031 0.859375 18.90625 0.859375 C 13.664062 0.859375 9.421875 -0.582031 6.171875 -3.46875 Z M 13.984375 -19.546875 C 12.671875 -18.253906 12.015625 -16.597656 12.015625 -14.578125 C 12.015625 -12.566406 12.640625 -10.925781 13.890625 -9.65625 C 15.148438 -8.382812 16.804688 -7.75 18.859375 -7.75 C 20.828125 -7.75 22.445312 -8.394531 23.71875 -9.6875 C 25 -10.976562 25.640625 -12.609375 25.640625 -14.578125 C 25.640625 -16.597656 24.984375 -18.253906 23.671875 -19.546875 C 22.359375 -20.835938 20.753906 -21.484375 18.859375 -21.484375 C 16.921875 -21.484375 15.296875 -20.835938 13.984375 -19.546875 Z M 13.984375 -19.546875 "/></g></g></g><path fill="#ffbd59" d="M 280.195312 200.445312 L 190.214844 200.445312 C 193.410156 195.558594 190.488281 190.972656 185.472656 191.945312 C 181.535156 192.710938 179.9375 197.667969 182.542969 200.136719 C 184.199219 201.703125 186.503906 202.046875 188.703125 201.652344 C 185.964844 204.394531 182.132812 202.824219 181.101562 201.808594 C 177.375 198.121094 179.691406 192.210938 185.0625 190.789062 C 189.59375 189.585938 194.824219 193.050781 192.488281 198.992188 L 280.195312 198.992188 L 280.910156 199.699219 L 280.910156 199.738281 Z M 280.195312 200.445312 " fill-opacity="1" fill-rule="nonzero"/><path fill="#ffbd59" d="M 89.488281 198.992188 L 179.46875 198.992188 C 176.273438 203.878906 179.191406 208.46875 184.207031 207.492188 C 188.148438 206.730469 189.746094 201.769531 187.136719 199.304688 C 185.484375 197.738281 183.179688 197.394531 180.980469 197.785156 C 183.71875 195.042969 187.550781 196.613281 188.582031 197.632812 C 192.308594 201.316406 189.992188 207.226562 184.621094 208.648438 C 180.089844 209.851562 174.859375 206.386719 177.195312 200.445312 L 89.488281 200.445312 L 88.773438 199.738281 L 88.773438 199.699219 Z M 89.488281 198.992188 " fill-opacity="1" fill-rule="nonzero"/><g clip-path="url(#8d03623775)"><g clip-path="url(#5711566bd2)"><g clip-path="url(#fbfb8b85a0)"><path fill="#ff914d" d="M 358.691406 45.378906 L 352.835938 50.132812 C 351.832031 50.949219 353.214844 52.394531 354.210938 51.585938 L 360.0625 46.832031 C 361.070312 46.015625 359.6875 44.570312 358.691406 45.378906 Z M 358.691406 45.378906 " fill-opacity="1" fill-rule="nonzero"/></g></g></g><g clip-path="url(#d5ffa15a15)"><g clip-path="url(#df5bde0af9)"><g clip-path="url(#bf95712574)"><path fill="#ff914d" d="M 368.761719 58.097656 L 364.003906 58.847656 C 362.726562 59.046875 363.210938 60.996094 364.476562 60.796875 L 369.234375 60.046875 C 370.511719 59.847656 370.027344 57.898438 368.761719 58.097656 Z M 368.761719 58.097656 " fill-opacity="1" fill-rule="nonzero"/></g></g></g><g clip-path="url(#ac32ce9a00)"><g clip-path="url(#1dd045a1cb)"><g clip-path="url(#a2b36a43cc)"><path fill="#ff914d" d="M 342.980469 40.285156 C 342.960938 37.835938 343.117188 35.390625 343.445312 32.964844 C 343.621094 31.683594 341.617188 31.671875 341.445312 32.945312 C 341.117188 35.371094 340.960938 37.816406 340.980469 40.265625 C 340.992188 41.554688 342.992188 41.582031 342.980469 40.285156 Z M 342.980469 40.285156 " fill-opacity="1" fill-rule="nonzero"/></g></g></g></svg>